<?xml version="1.0" standalone="no"?>
<!DOCTYPE svg PUBLIC "-//W3C//DTD SVG 20010904//EN"
 "http://www.w3.org/TR/2001/REC-SVG-20010904/DTD/svg10.dtd">
<svg version="1.0" xmlns="http://www.w3.org/2000/svg"
 width="182.000000pt" height="182.000000pt" viewBox="0 0 182.000000 182.000000"
 preserveAspectRatio="xMidYMid meet">
<metadata>
Created by potrace 1.14, written by Peter Selinger 2001-2017
</metadata>
<g transform="translate(0.000000,182.000000) scale(0.100000,-0.100000)"
fill="#000000" stroke="none">
<path d="M1113 1807 c2 -6 12 -14 23 -17 22 -6 34 -70 14 -70 -7 0 -9 -7 -6
-16 3 -8 2 -13 -3 -10 -5 3 -11 -1 -15 -9 -3 -8 -12 -15 -21 -15 -8 0 -15 -6
-15 -13 0 -16 32 -18 42 -3 10 15 10 -6 0 -22 -13 -19 -52 -24 -59 -7 -3 8 -9
13 -14 10 -4 -3 -6 -12 -3 -20 4 -8 -1 -18 -10 -21 -9 -3 -13 -10 -10 -15 3
-5 -10 -9 -30 -9 -45 0 -72 -10 -55 -20 6 -4 -3 -7 -20 -5 -43 3 -101 -18
-123 -45 -16 -19 -16 -24 -3 -37 17 -16 20 -27 6 -19 -12 8 -23 -23 -14 -37 9
-14 12 -32 17 -114 4 -64 10 -83 28 -83 6 0 8 12 5 27 -5 28 -5 28 12 7 9 -12
26 -24 37 -28 23 -7 64 -43 64 -55 0 -5 -12 -8 -27 -8 -68 0 -91 -4 -97 -18
-3 -8 -2 -14 2 -14 21 4 32 -3 32 -19 0 -11 9 -27 20 -37 10 -9 18 -21 17 -25
-1 -5 7 -16 18 -25 11 -9 14 -14 8 -10 -19 9 -16 -6 5 -22 9 -8 11 -11 4 -8
-10 5 -13 2 -10 -11 2 -12 11 -18 23 -16 19 2 19 2 2 -8 -9 -6 -14 -16 -11
-22 5 -7 2 -8 -6 -3 -7 4 -48 8 -90 9 -58 1 -76 -2 -73 -11 3 -7 13 -13 23
-13 22 0 32 -24 17 -39 -7 -7 -7 -11 -1 -11 6 0 15 10 21 22 6 14 12 18 17 10
4 -6 -2 -20 -14 -32 -11 -11 -16 -20 -10 -20 6 0 10 -7 10 -15 0 -8 -4 -15 -9
-15 -5 0 -8 -8 -6 -17 3 -23 -14 -45 -29 -36 -6 4 -4 -2 4 -12 14 -17 13 -18
-2 -12 -21 7 -29 -4 -30 -42 -1 -23 -8 -32 -38 -45 -33 -14 -36 -19 -33 -48 3
-22 1 -29 -5 -20 -11 16 -42 5 -42 -15 0 -9 -6 -13 -14 -10 -9 4 -14 -3 -14
-20 1 -15 3 -20 8 -13 5 9 9 9 14 1 4 -6 16 -11 26 -11 10 0 23 -7 28 -16 7
-12 11 -13 17 -5 4 8 11 9 18 3 12 -10 179 -41 234 -45 6 0 9 -7 5 -15 -4 -12
0 -14 19 -9 22 5 22 5 7 -7 -22 -16 -23 -27 -3 -20 10 4 15 0 15 -15 0 -24 10
-27 28 -9 6 6 14 9 18 6 3 -4 -7 -14 -23 -22 l-28 -16 26 6 c25 5 27 3 34 -36
5 -29 10 -38 16 -29 6 10 8 7 6 -9 -1 -14 -6 -21 -15 -17 -8 3 -10 0 -6 -6 4
-8 -1 -9 -15 -4 -12 3 -21 3 -20 -2 3 -18 -2 -32 -17 -48 -9 -9 -14 -19 -11
-22 3 -3 14 2 23 11 9 10 23 15 30 12 7 -3 16 -1 19 3 3 5 -3 12 -13 16 -16 6
-16 7 2 17 14 8 21 7 27 -3 6 -10 9 -7 9 11 1 22 2 23 11 7 5 -9 7 -22 3 -28
-3 -6 0 -15 7 -20 11 -7 9 -9 -6 -10 -11 -1 -23 -1 -27 0 -14 2 -9 -11 10 -26
16 -14 16 -14 -3 -8 -35 12 -68 10 -73 -4 -3 -8 0 -11 7 -7 6 4 11 2 11 -3 0
-6 -6 -11 -12 -12 -12 0 19 -17 35 -18 12 -1 8 27 -5 33 -7 3 -4 5 7 3 16 -2
20 -9 18 -35 -1 -17 2 -32 7 -32 5 0 7 -7 3 -16 -4 -10 -8 -12 -13 -5 -4 8
-13 5 -24 -8 -15 -16 -23 -18 -38 -10 -22 12 -33 6 -25 -14 3 -8 24 -14 55
-16 40 -1 53 2 61 16 10 17 10 17 11 1 0 -17 23 -18 350 -18 l350 0 0 910 0
910 -356 0 c-268 -1 -354 -4 -351 -13z m100 -54 c-7 -2 -19 -2 -25 0 -7 3 -2
5 12 5 14 0 19 -2 13 -5z m17 -23 c0 -5 -5 -10 -11 -10 -5 0 -7 5 -4 10 3 6 8
10 11 10 2 0 4 -4 4 -10z m-70 -144 c0 -11 -19 -15 -25 -6 -3 5 1 10 9 10 9 0
16 -2 16 -4z m-96 -21 c-4 -8 -8 -15 -10 -15 -2 0 -4 7 -4 15 0 8 4 15 10 15
5 0 7 -7 4 -15z m73 -47 c-3 -8 -6 -5 -6 6 -1 11 2 17 5 13 3 -3 4 -12 1 -19z
m-124 -245 c-7 -2 -15 -3 -19 -1 -3 2 -12 -8 -19 -22 -9 -16 -14 -19 -15 -9 0
21 16 35 42 36 13 0 17 -1 11 -4z m-113 -423 c0 -5 -5 -10 -11 -10 -5 0 -7 5
-4 10 3 6 8 10 11 10 2 0 4 -4 4 -10z m44 -57 c-6 -2 -9 -15 -6 -28 2 -15 0
-25 -7 -25 -7 0 -9 -4 -6 -10 3 -5 1 -10 -4 -10 -12 0 -14 32 -5 79 6 30 8 31
23 16 10 -11 12 -19 5 -22z m-84 -24 c0 -5 -4 -9 -10 -9 -5 0 -10 7 -10 16 0
8 5 12 10 9 6 -3 10 -10 10 -16z m-60 -69 c0 -5 -5 -10 -11 -10 -5 0 -7 5 -4
10 3 6 8 10 11 10 2 0 4 -4 4 -10z m-110 -165 c0 -8 -4 -15 -10 -15 -5 0 -10
7 -10 15 0 8 5 15 10 15 6 0 10 -7 10 -15z m486 -411 c2 -12 -1 -13 -12 -3 -7
6 -11 16 -8 21 7 11 17 3 20 -18z m-49 -20 c-3 -3 -12 -4 -19 -1 -8 3 -5 6 6
6 11 1 17 -2 13 -5z"/>
<path d="M231 972 c-9 -16 -6 -18 20 -14 16 2 29 10 29 18 0 20 -38 17 -49 -4z"/>
<path d="M667 599 c7 -7 15 -10 18 -7 3 3 -2 9 -12 12 -14 6 -15 5 -6 -5z"/>
<path d="M585 540 c3 -5 8 -10 11 -10 2 0 4 5 4 10 0 6 -5 10 -11 10 -5 0 -7
-4 -4 -10z"/>
<path d="M860 229 c0 -5 5 -7 10 -4 6 3 10 8 10 11 0 2 -4 4 -10 4 -5 0 -10
-5 -10 -11z"/>
<path d="M915 180 c-3 -5 -2 -10 4 -10 5 0 13 5 16 10 3 6 2 10 -4 10 -5 0
-13 -4 -16 -10z"/>
<path d="M944 145 c1 -33 16 -33 16 0 0 14 -4 25 -9 25 -5 0 -8 -11 -7 -25z"/>
<path d="M976 153 c4 -10 7 -30 6 -45 -1 -21 4 -28 17 -28 17 0 17 3 3 45 -8
25 -19 45 -24 45 -6 0 -7 -7 -2 -17z"/>
<path d="M1038 93 c9 -4 10 -8 2 -18 -8 -10 -8 -15 1 -21 7 -4 9 -3 5 4 -3 6
-2 13 4 17 13 8 3 25 -13 24 -8 0 -8 -2 1 -6z"/>
</g>
</svg>
